# xmcd CD database file
#
# Track frame offsets:
#	150
#	21293
#	46275
#	71737
#	107128
#	132857
#	156625
#	176481
#	205459
#	222094
#	242999
#
# Disc length: 3536 seconds
#
# Revision: 0
# Processed by: cddbd v1.5.2PL0 Copyright (c) Steve Scherf et al.
# Submitted via: CDex 1.70beta2
#
DISCID=a70dce0b
DTITLE=Machado - Te Invito A Bailar
DYEAR=1900
DGENRE=Salsa
TTITLE0=La Cartea
TTITLE1=La Trigueña Encarnacion
TTITLE2=Guayacán
TTITLE3=Te Invita A Bailar
TTITLE4=El Que La Hace La Paga
TTITLE5=Jorge Machete
TTITLE6=Canto A Mi Habana Vieja
TTITLE7=Descarga En Re
TTITLE8=Me Engañaste
TTITLE9=El Platanal De Bartolo
TTITLE10=Alarde Na Má
EXTD=
EXTT0=
EXTT1=
EXTT2=
EXTT3=
EXTT4=
EXTT5=
EXTT6=
EXTT7=
EXTT8=
EXTT9=
EXTT10=
PLAYORDER=
